<?xml version="1.0" encoding="utf-8"?>
<!-- Generator: Adobe Illustrator 16.0.4, SVG Export Plug-In . SVG Version: 6.00 Build 0)  -->
<!DOCTYPE svg PUBLIC "-//W3C//DTD SVG 1.1//EN" "http://www.w3.org/Graphics/SVG/1.1/DTD/svg11.dtd">
<svg version="1.1" id="Layer_1" xmlns="http://www.w3.org/2000/svg" xmlns:xlink="http://www.w3.org/1999/xlink" x="0px" y="0px"
	 width="612px" height="170px" viewBox="0 0 612 170" enable-background="new 0 0 612 170" xml:space="preserve">
<g>
	<path fill="#231F20" d="M34.105,45.544v12.255c0,8.266-4.085,12.351-12.35,12.351h-7.41c-8.265,0-12.35-4.085-12.35-12.351V43.644
		H15.01v12.92c0,1.615,0.76,2.375,2.375,2.375h1.235c1.615,0,2.375-0.76,2.375-2.375v-7.979c0-2.09-0.665-3.135-2.28-4.275
		l-11.4-8.455c-4.085-2.945-5.32-5.7-5.32-10.45V14.858c0-8.265,4.085-12.351,12.35-12.351h7.22c8.265,0,12.35,4.086,12.35,12.351
		v12.16H20.9V16.094c0-1.615-0.76-2.375-2.375-2.375H17.48c-1.615,0-2.375,0.76-2.375,2.375v6.27c0,2.09,0.665,3.136,2.28,4.275
		l11.4,8.455C32.871,38.039,34.105,40.604,34.105,45.544z"/>
	<path fill="#231F20" d="M37.809,2.128H50.35v17.766c2.755-2.375,5.225-4.085,8.93-4.085h0.95c5.035,0,7.98,2.85,7.98,8.645v45.126
		h-12.54v-40.66c0-1.426-0.665-2.091-2.47-2.091c-1.14,0-2.09,0.285-2.85,0.57v42.181H37.809V2.128z"/>
	<path fill="#231F20" d="M71.914,49.534c0-5.891,1.805-8.36,7.03-10.165l10.26-3.516v-7.41c0-1.425-0.665-2.09-2.09-2.09h-0.76
		c-1.425,0-2.28,0.665-2.28,2.09v6.46h-11.59v-7.505c0-7.695,3.896-11.59,11.59-11.59h5.89c7.695,0,11.59,3.895,11.59,11.59v42.181
		h-12.16v-3.515c-2.945,2.47-5.415,4.085-9.215,4.085h-0.19c-5.13,0-8.075-3.04-8.075-8.646V49.534z M89.204,58.844V45.829
		l-3.515,1.614c-1.33,0.665-1.805,1.235-1.805,2.945v6.84c0,1.426,0.665,2.091,2.375,2.091
		C87.399,59.319,88.444,59.129,89.204,58.844z"/>
	<path fill="#231F20" d="M127.489,70.149h-0.19c-3.705,0-6.365-1.521-9.12-3.705v13.585h-12.541V16.378h12.35v3.705
		c2.755-2.47,5.605-4.274,9.311-4.274h0.19c5.51,0,8.74,3.135,8.74,9.215v35.91C136.229,67.014,132.999,70.149,127.489,70.149z
		 M121.219,26.828c-1.33,0-2.28,0.285-3.04,0.57v31.16c0.76,0.285,1.71,0.57,3.04,0.57c1.805,0,2.47-0.665,2.47-2.09v-28.12
		C123.688,27.493,123.023,26.828,121.219,26.828z"/>
	<path fill="#231F20" d="M152.378,48.014v9.215c0,1.426,0.665,2.091,2.09,2.091h1.14c1.425,0,2.09-0.665,2.09-2.091v-5.034h11.97
		v6.364c0,7.695-3.895,11.591-11.59,11.591h-6.46c-7.695,0-11.59-3.896-11.59-11.591v-31.16c0-7.695,3.895-11.59,11.59-11.59h6.46
		c7.695,0,11.59,3.895,11.59,11.59v20.615H152.378z M152.378,38.323h5.13v-9.785c0-1.425-0.665-2.09-2.09-2.09h-0.95
		c-1.425,0-2.09,0.665-2.09,2.09V38.323z"/>
</g>
<g>
	<path fill="#231F20" d="M35.056,117.269v17.575c0,8.266-4.085,12.351-12.351,12.351h-8.17c-8.265,0-12.35-4.085-12.35-12.351
		v-42.94c0-8.265,4.085-12.351,12.35-12.351h7.98c8.265,0,12.35,4.086,12.35,12.351v15.58h-13.11V93.328
		c0-1.615-0.76-2.375-2.375-2.375h-1.52c-1.615,0-2.375,0.76-2.375,2.375v40.091c0,1.615,0.76,2.375,2.375,2.375h1.71
		c1.615,0,2.375-0.76,2.375-2.375v-16.15H35.056z"/>
	<path fill="#231F20" d="M39.234,93.423h12.35v5.796c2.09-4.275,4.085-6.271,7.695-6.271v13.585
		c-3.325,0.285-5.605,1.141-7.505,2.851v37.24H39.234V93.423z"/>
	<path fill="#231F20" d="M74.003,125.059v9.215c0,1.426,0.665,2.091,2.09,2.091h1.14c1.425,0,2.09-0.665,2.09-2.091v-5.034h11.97
		v6.364c0,7.695-3.895,11.591-11.59,11.591h-6.46c-7.695,0-11.59-3.896-11.59-11.591v-31.16c0-7.695,3.895-11.59,11.59-11.59h6.46
		c7.695,0,11.59,3.895,11.59,11.59v20.615H74.003z M74.003,115.368h5.13v-9.785c0-1.425-0.665-2.09-2.09-2.09h-0.95
		c-1.425,0-2.09,0.665-2.09,2.09V115.368z"/>
	<path fill="#231F20" d="M94.902,126.579c0-5.891,1.805-8.36,7.03-10.165l10.26-3.516v-7.41c0-1.425-0.665-2.09-2.09-2.09h-0.76
		c-1.425,0-2.28,0.665-2.28,2.09v6.46h-11.59v-7.505c0-7.695,3.895-11.59,11.59-11.59h5.89c7.695,0,11.59,3.895,11.59,11.59v42.181
		h-12.16v-3.515c-2.945,2.47-5.415,4.085-9.215,4.085h-0.19c-5.13,0-8.075-3.04-8.075-8.646V126.579z M112.192,135.889v-13.015
		l-3.515,1.614c-1.33,0.665-1.805,1.235-1.805,2.945v6.84c0,1.426,0.665,2.091,2.375,2.091
		C110.388,136.364,111.433,136.174,112.192,135.889z"/>
	<path fill="#231F20" d="M142.972,146.624h-12.54v-42.751h-3.42v-10.45h3.42v-8.55h12.54v8.55h4.94v10.45h-4.94V146.624z"/>
	<path fill="#231F20" d="M162.351,125.059v9.215c0,1.426,0.665,2.091,2.09,2.091h1.14c1.425,0,2.09-0.665,2.09-2.091v-5.034h11.97
		v6.364c0,7.695-3.895,11.591-11.59,11.591h-6.46c-7.695,0-11.59-3.896-11.59-11.591v-31.16c0-7.695,3.895-11.59,11.59-11.59h6.46
		c7.695,0,11.59,3.895,11.59,11.59v20.615H162.351z M162.351,115.368h5.13v-9.785c0-1.425-0.665-2.09-2.09-2.09h-0.95
		c-1.425,0-2.09,0.665-2.09,2.09V115.368z"/>
</g>
<g>
	<path fill="#231F20" d="M213.629,146.579h-27.301V10.074h27.301V146.579z"/>
	<path fill="#231F20" d="M222.985,37.375h25.351v7.215c5.655-4.875,11.115-8.385,18.721-8.385h1.95
		c10.335,0,16.38,5.851,16.38,17.745v92.629h-25.741V63.116c0-2.926-1.365-4.29-5.07-4.29c-2.34,0-4.29,0.585-5.85,1.17v86.583
		h-25.741V37.375z"/>
	<path fill="#231F20" d="M328.09,62.336c0-2.925-1.365-4.29-4.29-4.29h-1.755c-2.925,0-4.291,1.365-4.291,4.29v7.605
		c0,3.12,0.975,4.485,3.706,6.24l19.891,12.285c7.995,5.07,11.7,9.751,11.7,19.696v15.795c0,15.796-7.995,23.791-23.791,23.791
		h-12.285c-15.796,0-23.791-7.995-23.791-23.791v-17.16h24.766v14.82c0,2.925,1.365,4.29,4.29,4.29h2.145
		c2.925,0,4.29-1.365,4.29-4.29v-8.19c0-3.12-0.975-4.485-3.705-6.24l-19.891-12.285c-7.995-5.07-11.7-9.751-11.7-19.696v-15.21
		c0-15.796,7.995-23.791,23.791-23.791h11.896c15.795,0,23.791,7.995,23.791,23.791v16.38H328.09V62.336z"/>
	<path fill="#231F20" d="M405.699,147.749h-0.391c-7.605,0-13.064-3.12-18.721-7.605v27.887h-25.74V37.375h25.351v7.605
		c5.655-5.07,11.505-8.775,19.11-8.775h0.391c11.311,0,17.94,6.436,17.94,18.916v73.712
		C423.64,141.313,417.01,147.749,405.699,147.749z M392.828,58.826c-2.729,0-4.68,0.585-6.24,1.17v63.962
		c1.561,0.585,3.511,1.17,6.24,1.17c3.705,0,5.07-1.364,5.07-4.29V63.116C397.898,60.19,396.533,58.826,392.828,58.826z"/>
	<path fill="#231F20" d="M431.632,8.124h26.521V30.55h-26.521V8.124z M432.022,37.375h25.741v109.204h-25.741V37.375z"/>
	<path fill="#231F20" d="M466.536,37.375h25.351v11.896c4.291-8.775,8.386-12.87,15.796-12.87v27.886
		c-6.825,0.585-11.505,2.34-15.405,5.85v76.443h-25.741V37.375z"/>
	<path fill="#231F20" d="M537.904,102.312v18.916c0,2.925,1.365,4.29,4.29,4.29h2.341c2.925,0,4.29-1.365,4.29-4.29v-10.336h24.57
		v13.065c0,15.796-7.995,23.791-23.791,23.791h-13.26c-15.796,0-23.791-7.995-23.791-23.791V59.996
		c0-15.796,7.995-23.791,23.791-23.791h13.26c15.796,0,23.791,7.995,23.791,23.791v42.316H537.904z M537.904,82.422h10.53V62.336
		c0-2.925-1.365-4.29-4.29-4.29h-1.95c-2.925,0-4.29,1.365-4.29,4.29V82.422z"/>
	<path fill="#231F20" d="M606.153,146.579h-25.352v-30.031h25.352V146.579z"/>
</g>
<g>
</g>
<g>
</g>
<g>
</g>
<g>
</g>
<g>
</g>
<g>
</g>
</svg>
